<svg width="90" height="90" viewBox="0 0 90 90" fill="none" xmlns="http://www.w3.org/2000/svg">
<rect x="9" y="9" width="72" height="75" fill="#111111"/>
<path d="M15.332 89.8926H74.5605C84.8144 89.8926 89.8928 84.8145 89.8928 74.7559V15.1368C89.8928 5.0782 84.8144 0 74.5605 0H15.332C5.1269 0 0 5.0293 0 15.1368V74.7559C0 84.8633 5.1269 89.8926 15.332 89.8926ZM46.1914 17.4805C47.3633 17.4805 48.291 17.9688 49.3652 18.9942L67.334 37.0118C67.9687 37.6954 68.4082 38.6231 68.4082 39.7461C68.4082 41.9434 66.748 43.6524 64.5508 43.6524C63.3789 43.6524 62.4023 43.1641 61.7187 42.4805L55.1758 35.7911L49.7558 29.3946L50.1953 40.6739V68.3594C50.1953 70.7032 48.4863 72.3145 46.1914 72.3145C43.8476 72.3145 42.1386 70.7032 42.1386 68.3594V40.6739L42.5781 29.4434L37.207 35.7911L30.664 42.4805C29.9804 43.1153 28.955 43.6524 27.832 43.6524C25.5859 43.6524 23.9746 41.9434 23.9746 39.7461C23.9746 38.6231 24.3652 37.6954 25.0488 37.0118L43.0176 18.9942C44.1406 17.92 45.0195 17.4805 46.1914 17.4805Z" fill="#E7E7E7"/>
</svg>
