<svg width="96" height="61" viewBox="0 0 96 61" fill="none" xmlns="http://www.w3.org/2000/svg">
<path d="M48.4521 60.2148C52.3584 60.166 55.3369 58.7988 58.6084 55.5273L92.544 20.7129C94.839 18.4668 95.815 15.8789 95.815 12.6562C95.815 6.16206 90.444 0.693359 84.0966 0.693359C80.874 0.693359 77.8466 2.06046 75.3076 4.69726L48.5498 32.8711L21.5966 4.69726C19.0576 2.10936 16.0302 0.693359 12.7588 0.693359C6.36231 0.693359 0.991211 6.16206 0.991211 12.6562C0.991211 15.8301 2.06541 18.3691 4.26271 20.7129L38.247 55.5273C41.5673 58.8476 44.5947 60.2148 48.4521 60.2148Z" fill="#111111"/>
</svg>
