<svg width="102" height="102" viewBox="0 0 102 102" fill="none" xmlns="http://www.w3.org/2000/svg">
<rect x="21" y="17" width="61" height="63" fill="#111111"/>
<path d="M50.4883 101.025C78.1739 101.025 101.026 78.1738 101.026 50.5371C101.026 22.8516 78.125 0 50.4395 0C22.8028 0 0 22.8516 0 50.5371C0 78.1738 22.8516 101.025 50.4883 101.025ZM33.545 72.1192C30.9571 72.1192 28.9063 70.0195 28.9063 67.4317C28.9063 66.1621 29.3946 65.0391 30.2735 64.209L43.8965 50.5371L30.2735 36.9141C29.3946 36.084 28.9063 34.9121 28.9063 33.6914C28.9063 31.0547 30.9571 29.0527 33.545 29.0527C34.9121 29.0527 35.9864 29.541 36.8164 30.4199L50.4395 43.9942L64.1602 30.3711C65.1368 29.3945 66.1621 29.0039 67.4317 29.0039C70.0684 29.0039 72.1192 31.0547 72.1192 33.6426C72.1192 34.9121 71.6797 35.9375 70.752 36.8652L57.1289 50.5371L70.7032 64.1113C71.5821 65.0391 72.0703 66.1133 72.0703 67.4317C72.0703 70.0195 70.0196 72.1192 67.4317 72.1192C66.0645 72.1192 64.8926 71.582 64.0625 70.752L50.4395 57.1777L36.9141 70.752C36.084 71.6309 34.9121 72.1192 33.545 72.1192Z" fill="#E7E7E7"/>
</svg>
